<?xml version="1.0" encoding="UTF-8" standalone="no"?>
<!DOCTYPE svg PUBLIC "-//W3C//DTD SVG 1.1//EN" "http://www.w3.org/Graphics/SVG/1.1/DTD/svg11.dtd">
<svg width="100%" height="100%" viewBox="0 0 3672 3672" version="1.1" xmlns="http://www.w3.org/2000/svg" xmlns:xlink="http://www.w3.org/1999/xlink" xml:space="preserve" xmlns:serif="http://www.serif.com/" style="fill-rule:evenodd;clip-rule:evenodd;stroke-linejoin:round;stroke-miterlimit:2;">
    <g id="path207" transform="matrix(1,0,0,1,-49.35539,529.837884)">
        <path d="M2473.333,605.333C2479.213,580.651 2478.613,553.267 2483,528C2491,481.937 2504.907,437.151 2524.413,394.667C2616.827,193.413 2826.173,65.951 3044,55.167C3316.387,41.681 3586.667,222.155 3683.227,476C3717.147,565.161 3735.48,674.788 3706.627,768C3665.373,901.307 3521.107,973.419 3397.333,1014.667C3358.467,1027.62 3318.573,1037.653 3278.667,1046.825C3266.467,1049.629 3243.16,1047.051 3236.12,1058.692C3228.067,1071.981 3224.08,1089.525 3218.4,1104C3206.253,1134.892 3193.6,1165.639 3180.187,1196C3143.147,1279.824 3101.373,1359.44 3053.08,1437.333C3032.6,1470.36 3009.947,1502.36 2986.493,1533.333C2980.08,1541.8 2959.787,1559.893 2959.827,1570.667C2959.84,1577.68 2969.893,1585.693 2974.107,1590.667C2986.8,1605.707 2998.853,1621.307 3010.28,1637.333C3046.693,1688.427 3078.28,1745.107 3096.747,1805.333C3126.053,1900.893 3133.747,2009.227 3108.16,2106.667C3062.2,2281.667 2892.4,2450.92 2702.667,2442.613C2664.093,2440.92 2633.907,2418.2 2624.867,2380C2613.453,2331.707 2622.107,2276.093 2619.947,2226.667C2617.44,2169.28 2604.347,2110.36 2586.227,2056C2578.013,2031.387 2569.28,2007.227 2557.667,1984C2553.253,1975.187 2548.773,1962.747 2538.667,1959.173C2520.267,1952.667 2500.013,1969.547 2493.68,1985.333C2484.987,2006.96 2479.68,2030.133 2471.427,2052C2456.133,2092.547 2437.68,2131.707 2416.2,2169.333C2305.613,2363.067 2117.16,2504.52 1897.333,2546.933C1820.4,2561.773 1739.92,2561.787 1664,2541.48C1624.267,2530.867 1592.067,2489.373 1608.267,2448C1616.293,2427.52 1631.827,2410.76 1644.84,2393.333C1659.12,2374.2 1671.56,2354.04 1683.427,2333.333C1722.693,2264.853 1750.613,2193.067 1776,2118.667C1759.627,2117.533 1741.773,2124.853 1725.333,2126.44C1671.253,2131.68 1616.933,2138.907 1562.667,2141.28C1540.613,2142.253 1518.027,2142.667 1496,2142.667C1486.587,2142.667 1472.64,2140.12 1464.013,2144.427C1453.72,2149.56 1447.253,2164.587 1440.253,2173.333C1427.227,2189.627 1412.56,2203.52 1396,2216.16C1323.48,2271.48 1235.381,2305.28 1144,2309.28C1104.353,2311.013 1043.12,2304.947 1043.12,2252C1043.12,2224.12 1062.567,2194.12 1073.52,2169.333C1080.547,2153.427 1086.704,2137.16 1089.851,2120C1091.763,2109.573 1086.529,2101.413 1074.667,2104.04C1056.312,2108.107 1037.809,2135.44 1024,2147.613C983.125,2183.653 941.505,2219.173 896,2249.333C769.228,2333.32 618.296,2382.6 465.333,2372.12C405.332,2368.013 345.128,2358.147 290.667,2330.92C246.436,2308.8 185.529,2259.907 205.919,2202.667C219.075,2165.733 258.916,2143.547 286.667,2118.44C334.812,2074.88 378.791,2025.867 420.329,1976C439.144,1953.413 457.523,1930.4 474.868,1906.667C478.377,1901.867 492.737,1888.08 490.259,1881.76C487.757,1875.387 461.008,1875.4 454.667,1874.333C420.372,1868.627 386.792,1858.573 354.667,1845.32C261.584,1806.907 164.837,1748.667 101.072,1669.333C77.997,1640.627 49.372,1601.227 49.372,1562.667C49.372,1521.747 87.901,1504.307 122.667,1502.613C167.827,1500.427 214.428,1486.467 254.667,1466.333C269.86,1458.733 289.589,1450.507 295.521,1433.333C321.915,1356.907 338.855,1276.857 364.473,1200C422.421,1026.156 502.501,857.084 619.232,714.667C716.567,595.913 834.697,494.325 968,417.903C1298.12,228.648 1713.68,207.028 2066.667,343.748C2169.947,383.753 2270.493,437.941 2358.667,505.179C2399.093,536.005 2433.227,574.776 2473.333,605.333ZM3141,376C3065.388,376 3004,437.388 3004,513C3004,588.612 3065.388,650 3141,650C3216.612,650 3278,588.612 3278,513C3278,437.388 3216.612,376 3141,376ZM2036,687.048C1923.453,700.189 1810.827,716.336 1698.667,732.361C1680.413,734.968 1662.253,738.704 1644,740.953C1621.653,743.707 1596.893,744.369 1585.04,766.667C1574.733,786.081 1579.653,806.868 1594.787,822.615C1620.573,849.431 1654.333,870.587 1684,892.836C1693.88,900.243 1714.293,911.141 1717.427,924C1719.32,931.791 1708.693,939.303 1704,944L1656,992L1504,1144L1461.333,1186.667C1455.4,1192.604 1448.32,1202.812 1440.387,1205.992C1433.373,1208.8 1423.427,1198.099 1418.667,1194.081C1399.8,1178.167 1382.773,1160.105 1365.333,1142.667C1315.749,1093.083 1268.247,1037.999 1214.667,992.787C1187.533,969.892 1155.487,954.796 1121.333,972.345C1102.581,981.981 1088.049,998.617 1073.333,1013.333L1004,1082.667L770.667,1316L688,1398.667C679.867,1406.8 659.597,1420.613 656.963,1432.12C654.663,1442.173 675.997,1457.2 681.899,1464C702.617,1487.853 726.552,1511.24 750.667,1531.64C760.077,1539.587 771.643,1551.053 784,1553.76C797.621,1556.733 807.041,1544.333 816,1536.227C839.239,1515.213 862.312,1492.84 883.048,1469.333C943.127,1401.213 1011.761,1338.907 1076,1274.667C1093.46,1257.207 1110.667,1239.612 1129.333,1223.435C1135.124,1218.416 1142.748,1208.345 1150.667,1206.983C1158.387,1205.653 1165.945,1216.612 1170.667,1221.333L1220,1270.667C1265.109,1315.776 1309.54,1361.533 1354.667,1406.667C1375.987,1427.987 1395.373,1454.973 1428,1457.213C1486.053,1461.213 1528.56,1398.16 1565.333,1361.333C1638.6,1287.951 1709.32,1212.008 1782.667,1138.667C1803.32,1118.011 1823.32,1096.677 1844,1076C1851.733,1068.261 1862.253,1054.081 1872.053,1049.396C1877.907,1046.597 1882.08,1052.095 1885.507,1056.007C1893.613,1065.244 1901.493,1074.685 1909.507,1084C1928.573,1106.159 1947.427,1128.508 1966.493,1150.667C1974.08,1159.479 1982.227,1173.327 1993.333,1177.848C2003.933,1182.155 2017.787,1176.572 2026.653,1170.527C2056.08,1150.431 2051.387,1098.953 2055.053,1068C2066.8,968.741 2074.147,868.805 2083.773,769.333C2086.787,738.208 2091.707,696.867 2052,688.281C2046.653,687.125 2041.467,686.409 2036,687.048Z"/>
    </g>
</svg>
